<svg width="388" height="184" viewBox="0 0 388 184" fill="none" xmlns="http://www.w3.org/2000/svg">
<path d="M55.552 181.248L-3.19481e-05 60.928H19.968L66.816 166.144H55.552L102.656 60.928H122.112L66.048 181.248H55.552ZM173.622 183.808C162.187 183.808 151.947 181.077 142.902 175.616C133.857 169.984 126.689 162.475 121.398 153.088C116.278 143.701 113.718 133.12 113.718 121.344C113.718 109.397 116.278 98.7307 121.398 89.344C126.689 79.7867 133.857 72.2774 142.902 66.816C151.947 61.184 162.102 58.368 173.366 58.368C182.582 58.368 190.774 60.2454 197.942 64C205.281 67.584 211.169 72.704 215.606 79.36C220.214 85.8454 223.03 93.44 224.054 102.144V139.776C223.03 148.48 220.214 156.16 215.606 162.816C211.169 169.472 205.281 174.677 197.942 178.432C190.774 182.016 182.667 183.808 173.622 183.808ZM176.438 166.656C188.897 166.656 198.881 162.475 206.39 154.112C214.07 145.749 217.91 134.741 217.91 121.088C217.91 112.043 216.118 104.107 212.534 97.28C209.121 90.2827 204.257 84.9067 197.942 81.152C191.798 77.2267 184.545 75.264 176.182 75.264C167.649 75.264 160.054 77.2267 153.398 81.152C146.913 85.0774 141.707 90.5387 137.782 97.536C134.027 104.363 132.15 112.213 132.15 121.088C132.15 129.963 134.027 137.813 137.782 144.64C141.707 151.467 146.998 156.843 153.654 160.768C160.31 164.693 167.905 166.656 176.438 166.656ZM216.886 181.248V148.992L220.47 119.296L216.886 90.368V60.928H234.806V181.248H216.886ZM253.228 181.248V4.57764e-05H271.148V181.248H253.228ZM337.174 183.808C327.446 183.808 318.742 181.589 311.062 177.152C303.382 172.544 297.323 166.315 292.886 158.464C288.619 150.613 286.486 141.397 286.486 130.816V60.928H304.662V130.048C304.662 137.387 305.942 143.787 308.502 149.248C311.233 154.709 315.073 158.976 320.022 162.048C324.971 165.12 330.689 166.656 337.174 166.656C347.243 166.656 355.179 163.328 360.982 156.672C366.955 150.016 369.942 141.141 369.942 130.048V60.928H387.862V130.816C387.862 141.227 385.729 150.443 381.462 158.464C377.195 166.485 371.222 172.715 363.542 177.152C355.862 181.589 347.073 183.808 337.174 183.808Z" fill="black"/>
</svg>
