<svg width="689" height="292" viewBox="0 0 689 292" fill="none" xmlns="http://www.w3.org/2000/svg">
<rect width="82.7625" height="135.05" rx="30" transform="matrix(1 0 0.555763 0.831341 0 143.727)" fill="black"/>
<path d="M190 148.569C190 180.656 163.988 206.668 131.901 206.668L130.191 206.668C127.439 206.668 125.207 204.437 125.207 201.684L125.207 173.727C125.207 157.159 138.639 143.727 155.207 143.727L185.158 143.727C187.832 143.727 190 145.895 190 148.569V148.569Z" fill="black"/>
<path d="M311.16 256L255.608 135.68H275.576L322.424 240.896H311.16L358.264 135.68H377.72L321.656 256H311.16ZM429.23 258.56C417.795 258.56 407.555 255.829 398.51 250.368C389.465 244.736 382.297 237.227 377.006 227.84C371.886 218.453 369.326 207.872 369.326 196.096C369.326 184.149 371.886 173.483 377.006 164.096C382.297 154.539 389.465 147.029 398.51 141.568C407.555 135.936 417.71 133.12 428.974 133.12C438.19 133.12 446.382 134.997 453.55 138.752C460.889 142.336 466.777 147.456 471.214 154.112C475.822 160.597 478.638 168.192 479.662 176.896V214.528C478.638 223.232 475.822 230.912 471.214 237.568C466.777 244.224 460.889 249.429 453.55 253.184C446.382 256.768 438.275 258.56 429.23 258.56ZM432.046 241.408C444.505 241.408 454.489 237.227 461.998 228.864C469.678 220.501 473.518 209.493 473.518 195.84C473.518 186.795 471.726 178.859 468.142 172.032C464.729 165.035 459.865 159.659 453.55 155.904C447.406 151.979 440.153 150.016 431.79 150.016C423.257 150.016 415.662 151.979 409.006 155.904C402.521 159.829 397.315 165.291 393.39 172.288C389.635 179.115 387.758 186.965 387.758 195.84C387.758 204.715 389.635 212.565 393.39 219.392C397.315 226.219 402.606 231.595 409.262 235.52C415.918 239.445 423.513 241.408 432.046 241.408ZM472.494 256V223.744L476.078 194.048L472.494 165.12V135.68H490.414V256H472.494ZM508.836 256V74.752H526.756V256H508.836ZM592.782 258.56C583.054 258.56 574.35 256.341 566.67 251.904C558.99 247.296 552.931 241.067 548.494 233.216C544.227 225.365 542.094 216.149 542.094 205.568V135.68H560.27V204.8C560.27 212.139 561.55 218.539 564.11 224C566.841 229.461 570.681 233.728 575.63 236.8C580.579 239.872 586.297 241.408 592.782 241.408C602.851 241.408 610.787 238.08 616.59 231.424C622.563 224.768 625.55 215.893 625.55 204.8V135.68H643.47V205.568C643.47 215.979 641.337 225.195 637.07 233.216C632.803 241.237 626.83 247.467 619.15 251.904C611.47 256.341 602.681 258.56 592.782 258.56Z" fill="black"/>
</svg>
