<svg width="582" height="182" viewBox="0 0 582 182" fill="none" xmlns="http://www.w3.org/2000/svg">
<rect width="95.8303" height="156.374" rx="30" transform="matrix(1 0 0.555763 0.831341 0 49)" fill="black"/>
<path d="M220 54.6061C220 91.7598 189.881 121.879 152.727 121.879L150.748 121.879C147.561 121.879 144.977 119.295 144.977 116.108L144.977 79C144.977 62.4315 158.408 49 174.977 49L214.394 49C217.49 49 220 51.5099 220 54.6061V54.6061Z" fill="black"/>
<path d="M278.85 181.515C265.119 181.515 253.164 178.688 242.987 173.033C232.809 167.217 224.893 159.3 219.239 149.284C213.746 139.267 211 127.715 211 114.628C211 101.38 213.827 89.6671 219.481 79.4887C225.135 69.3102 232.971 61.3937 242.987 55.739C253.164 49.9228 265.119 47.0146 278.85 47.0146C286.605 47.0146 293.632 47.9032 299.932 49.6804C306.394 51.4576 312.049 53.881 316.895 56.9507C321.742 59.8588 325.78 63.0901 329.011 66.6445C332.404 70.1988 334.827 73.6724 336.281 77.0652L325.134 78.277V49.6804H373.356V179.334H323.922V144.437L334.342 147.83C333.373 152.03 331.273 156.15 328.042 160.189C324.811 164.228 320.772 167.863 315.926 171.095C311.241 174.164 305.748 176.668 299.448 178.607C293.147 180.546 286.282 181.515 278.85 181.515ZM292.42 141.529C299.367 141.529 305.264 140.478 310.11 138.378C314.956 136.116 318.672 132.966 321.257 128.927C323.842 124.888 325.134 120.122 325.134 114.628C325.134 108.812 323.842 103.885 321.257 99.8455C318.672 95.8065 314.956 92.7368 310.11 90.6365C305.264 88.3746 299.367 87.2437 292.42 87.2437C285.474 87.2437 279.497 88.3746 274.489 90.6365C269.642 92.7368 265.846 95.8065 263.099 99.8455C260.515 103.885 259.222 108.812 259.222 114.628C259.222 120.122 260.515 124.888 263.099 128.927C265.846 132.966 269.642 136.116 274.489 138.378C279.497 140.478 285.474 141.529 292.42 141.529Z" fill="black"/>
<path d="M380.456 179.334V0H429.647V179.334H380.456Z" fill="black"/>
<path d="M486.767 182C475.62 182 466.008 179.657 457.931 174.972C450.015 170.287 443.876 163.34 439.514 154.13C435.314 144.921 433.214 133.693 433.214 120.445V49.6804H482.405V114.628C482.405 120.445 483.132 125.211 484.586 128.927C486.202 132.643 488.706 135.47 492.098 137.409C495.491 139.186 499.933 140.075 505.426 140.075C509.142 140.075 512.615 139.509 515.846 138.378C519.238 137.247 522.146 135.632 524.57 133.531C527.154 131.431 529.174 128.927 530.628 126.019C532.082 122.949 532.808 119.556 532.808 115.84V49.6804H582V179.334H536.928L534.02 153.161L543.228 150.253C541.29 155.746 537.736 160.916 532.566 165.763C527.558 170.61 521.096 174.568 513.18 177.638C505.426 180.546 496.622 182 486.767 182Z" fill="black"/>
</svg>
